<svg width="18" height="18" viewBox="0 0 18 18" fill="none" xmlns="http://www.w3.org/2000/svg">
<path d="M1.50008 4.16669V2.16669C1.50008 2.01391 1.56619 1.89586 1.69841 1.81253C1.83064 1.72919 1.96591 1.72225 2.10425 1.79169L4.08341 2.79169C4.23619 2.86114 4.31258 2.98614 4.31258 3.16669C4.31258 3.34725 4.23619 3.47225 4.08341 3.54169L2.10425 4.54169C1.96536 4.61114 1.8298 4.60419 1.69758 4.52086C1.56536 4.43753 1.49953 4.31947 1.50008 4.16669ZM14.0001 4.16669V2.16669C14.0001 2.01391 14.0662 1.89586 14.1984 1.81253C14.3306 1.72919 14.4659 1.72225 14.6042 1.79169L16.5834 2.79169C16.7362 2.86114 16.8126 2.98614 16.8126 3.16669C16.8126 3.34725 16.7362 3.47225 16.5834 3.54169L14.6042 4.54169C14.4654 4.61114 14.3298 4.60419 14.1976 4.52086C14.0654 4.43753 13.9995 4.31947 14.0001 4.16669ZM8.16675 3.33336V1.33336C8.16675 1.18058 8.23286 1.06253 8.36508 0.979193C8.4973 0.895859 8.63258 0.888915 8.77092 0.958359L10.7501 1.95836C10.9029 2.0278 10.9792 2.1528 10.9792 2.33336C10.9792 2.51391 10.9029 2.63891 10.7501 2.70836L8.77092 3.70836C8.63203 3.7778 8.49675 3.77086 8.36508 3.68753C8.23342 3.60419 8.1673 3.48614 8.16675 3.33336ZM6.00008 17.1667C4.63897 17.0139 3.4098 16.7397 2.31258 16.3442C1.21536 15.9486 0.666748 15.445 0.666748 14.8334V7.33336C0.666748 6.98614 0.885637 6.66336 1.32341 6.36503C1.76119 6.06669 2.3548 5.8028 3.10425 5.57336C3.85369 5.34391 4.73564 5.16336 5.75008 5.03169C6.76453 4.90003 7.84786 4.83391 9.00008 4.83336C10.1523 4.8328 11.2356 4.89891 12.2501 5.03169C13.2645 5.16447 14.1465 5.34503 14.8959 5.57336C15.6454 5.80169 16.2392 6.06558 16.6776 6.36503C17.1159 6.66447 17.3345 6.98725 17.3334 7.33336V14.8334C17.3334 15.4584 16.7815 15.9689 15.6776 16.365C14.5737 16.7611 13.3409 17.0353 11.9792 17.1875C11.8542 17.2014 11.7431 17.1634 11.6459 17.0734C11.5487 16.9834 11.5001 16.8756 11.5001 16.75V15.6667C11.5001 14.9722 11.257 14.382 10.7709 13.8959C10.2848 13.4097 9.69453 13.1667 9.00008 13.1667C8.30564 13.1667 7.71536 13.4097 7.22925 13.8959C6.74314 14.382 6.50008 14.9722 6.50008 15.6667V16.7292C6.50008 16.8681 6.45147 16.9792 6.35425 17.0625C6.25703 17.1459 6.13897 17.1806 6.00008 17.1667ZM9.00008 8.16669C10.3473 8.16669 11.5104 8.08669 12.4892 7.92669C13.4681 7.76669 14.2495 7.5828 14.8334 7.37503C14.8334 7.30558 14.3056 7.14253 13.2501 6.88586C12.1945 6.62919 10.7779 6.50058 9.00008 6.50003C7.2223 6.49947 5.80564 6.62808 4.75008 6.88586C3.69453 7.14364 3.16675 7.30669 3.16675 7.37503C3.75008 7.58336 4.53119 7.76753 5.51008 7.92753C6.48897 8.08753 7.6523 8.16725 9.00008 8.16669Z" fill="#4B4B4B"/>
</svg>
